# xmcd
#
# Track frame offsets:
#	150
#	22253
#	43384
#	60884
#	72245
#	98378
#	114448
#	129784
#	148414
#	166664
#
# Disc length: 2583 seconds
#
# Revision: 0
# Processed by: cddbd v1.5.1PL2 Copyright (c) Steve Scherf et al.
# Submitted via: audiograbber 1.83.01
#
DISCID=820a150a
DTITLE=The Plan - Embrace Me Beauty 
DYEAR=2004
DGENRE=Slow Rock
TTITLE0=Young and armed
TTITLE1=Embrace me beauty
TTITLE2=I'm not with her no more
TTITLE3=Ding dong
TTITLE4=Autumn 
TTITLE5=We stopped running 
TTITLE6=Emma
TTITLE7=Friends getting cold
TTITLE8=Pass me by
TTITLE9=The mother's love
EXTD=
EXTT0=
EXTT1=
EXTT2=
EXTT3=
EXTT4=
EXTT5=
EXTT6=
EXTT7=
EXTT8=
EXTT9=
PLAYORDER=
